<svg width="24" height="24" viewBox="0 0 24 24" fill="none" xmlns="http://www.w3.org/2000/svg">
<path d="M19.2218 15.2686L16.6818 14.9786C16.0718 14.9086 15.4718 15.1186 15.0418 15.5486L13.2018 17.3886C10.3718 15.9486 8.0518 13.6386 6.6118 10.7986L8.4618 8.94855C8.8918 8.51855 9.1018 7.91855 9.0318 7.30855L8.7418 4.78855C8.6218 3.77855 7.7718 3.01855 6.7518 3.01855H5.0218C3.8918 3.01855 2.9518 3.95855 3.0218 5.08855C3.5518 13.6286 10.3818 20.4486 18.9118 20.9786C20.0418 21.0486 20.9818 20.1086 20.9818 18.9786V17.2486C20.9918 16.2386 20.2318 15.3886 19.2218 15.2686Z" fill="#8D8D93"/>
</svg>
