<svg width="25" height="24" viewBox="0 0 25 24" fill="none" xmlns="http://www.w3.org/2000/svg">
<path d="M16.5 20.0003C16.244 20.0003 15.988 19.9023 15.793 19.7073C15.402 19.3163 15.402 18.6842 15.793 18.2933L19.0859 15.0003H6.50001C5.94701 15.0003 5.50001 14.5523 5.50001 14.0003C5.50001 13.4483 5.94701 13.0003 6.50001 13.0003H21.5C21.904 13.0003 22.2701 13.2442 22.4241 13.6172C22.5791 13.9912 22.493 14.4213 22.207 14.7073L17.207 19.7073C17.012 19.9023 16.756 20.0003 16.5 20.0003ZM19.5 9.00028C19.5 8.44828 19.053 8.00028 18.5 8.00028H5.91407L9.20704 4.70731C9.59804 4.31631 9.59804 3.68425 9.20704 3.29325C8.81604 2.90225 8.18398 2.90225 7.79298 3.29325L2.79298 8.29325C2.50698 8.57925 2.42093 9.00934 2.57593 9.38334C2.72993 9.75734 3.09601 10.0003 3.50001 10.0003H18.5C19.053 10.0003 19.5 9.55228 19.5 9.00028Z" fill="#00A884"/>
</svg>
