<svg width="25" height="24" viewBox="0 0 25 24" fill="none" xmlns="http://www.w3.org/2000/svg">
<path fill-rule="evenodd" clip-rule="evenodd" d="M3.5 6C3.5 4.34315 4.84315 3 6.5 3H8.75C10.4069 3 11.75 4.34315 11.75 6V8.25C11.75 9.90685 10.4069 11.25 8.75 11.25H6.5C4.84315 11.25 3.5 9.90685 3.5 8.25V6ZM13.25 6C13.25 4.34315 14.5931 3 16.25 3H18.5C20.1569 3 21.5 4.34315 21.5 6V8.25C21.5 9.90685 20.1569 11.25 18.5 11.25H16.25C14.5931 11.25 13.25 9.90685 13.25 8.25V6ZM3.5 15.75C3.5 14.0931 4.84315 12.75 6.5 12.75H8.75C10.4069 12.75 11.75 14.0931 11.75 15.75V18C11.75 19.6569 10.4069 21 8.75 21H6.5C4.84315 21 3.5 19.6569 3.5 18V15.75ZM13.25 15.75C13.25 14.0931 14.5931 12.75 16.25 12.75H18.5C20.1569 12.75 21.5 14.0931 21.5 15.75V18C21.5 19.6569 20.1569 21 18.5 21H16.25C14.5931 21 13.25 19.6569 13.25 18V15.75Z" fill="url(#paint0_linear_217_452)"/>
<defs>
<linearGradient id="paint0_linear_217_452" x1="12.5" y1="3" x2="12.5" y2="21" gradientUnits="userSpaceOnUse">
<stop stop-color="#25D366"/>
<stop offset="0.609375" stop-color="#00A884"/>
</linearGradient>
</defs>
</svg>
