<svg width="16" height="16" viewBox="0 0 16 16" fill="none" xmlns="http://www.w3.org/2000/svg">
<path d="M14.3534 5.92794L12.1314 8.14994C12.034 8.24728 11.906 8.29659 11.778 8.29659C11.65 8.29659 11.522 8.24794 11.4247 8.14994L10.3133 7.03862C10.118 6.84395 10.118 6.52659 10.3133 6.33126C10.5087 6.13592 10.8254 6.13592 11.0207 6.33126L11.7787 7.08866L13.6473 5.21993C13.8427 5.0246 14.1593 5.0246 14.3547 5.21993C14.55 5.41526 14.5487 5.7326 14.3534 5.92794ZM6.67271 6.99996C8.14338 6.99996 9.33938 5.80396 9.33938 4.33329C9.33938 2.86263 8.14338 1.66663 6.67271 1.66663C5.20204 1.66663 4.00604 2.86263 4.00604 4.33329C4.00604 5.80396 5.20204 6.99996 6.67271 6.99996ZM8.00002 8.33329H5.33335C2.62669 8.33329 1.66669 10.3153 1.66669 12.0127C1.66669 13.5307 2.47405 14.3333 4.00205 14.3333H9.33132C10.8593 14.3333 11.6667 13.5307 11.6667 12.0127C11.6667 10.3153 10.7067 8.33329 8.00002 8.33329Z" fill="#25314C"/>
</svg>
